<svg width="100" height="100" viewBox="0 0 100 100" fill="none" xmlns="http://www.w3.org/2000/svg">
	<rect width="100" height="100" fill="white"/>
	<path d="M50.2833 74.375C57.1713 74.375 63.7771 71.6291 68.6476 66.7415C73.5181 61.8538 76.2544 55.2247 76.2544 48.3125C76.2544 41.4003 73.5181 34.7712 68.6476 29.8835C63.7771 24.9959 57.1713 22.25 50.2833 22.25C43.3954 22.25 36.7895 24.9959 31.919 29.8835C27.0485 34.7712 24.3123 41.4003 24.3123 48.3125C24.3123 55.2247 27.0485 61.8538 31.919 66.7415C36.7895 71.6291 43.3954 74.375 50.2833 74.375Z" fill="#FFD21E"/>
	<path d="M76.2543 48.3125C76.2543 41.4003 73.5181 34.7712 68.6476 29.8835C63.7771 24.9959 57.1712 22.25 50.2833 22.25C43.3953 22.25 36.7895 24.9959 31.919 29.8835C27.0485 34.7712 24.3122 41.4003 24.3122 48.3125C24.3122 55.2247 27.0485 61.8538 31.919 66.7415C36.7895 71.6291 43.3953 74.375 50.2833 74.375C57.1712 74.375 63.7771 71.6291 68.6476 66.7415C73.5181 61.8538 76.2543 55.2247 76.2543 48.3125ZM21.3228 48.3125C21.3228 44.496 22.0718 40.7168 23.5272 37.1908C24.9826 33.6647 27.1159 30.4609 29.8051 27.7622C32.4943 25.0635 35.6869 22.9228 39.2006 21.4623C42.7142 20.0017 46.4801 19.25 50.2833 19.25C54.0864 19.25 57.8523 20.0017 61.366 21.4623C64.8796 22.9228 68.0722 25.0635 70.7615 27.7622C73.4507 30.4609 75.5839 33.6647 77.0393 37.1908C78.4947 40.7168 79.2438 44.496 79.2438 48.3125C79.2438 56.0204 76.1926 63.4125 70.7615 68.8628C65.3303 74.3131 57.9641 77.375 50.2833 77.375C42.6025 77.375 35.2362 74.3131 29.8051 68.8628C24.3739 63.4125 21.3228 56.0204 21.3228 48.3125Z" fill="#FF9D0B"/>
	<path d="M58.721 41.2254C59.6777 41.5554 60.0514 43.5204 61.0155 43.0104C61.6683 42.6626 62.2037 42.1283 62.5539 41.4751C62.9041 40.8219 63.0534 40.0792 62.983 39.3408C62.9125 38.6024 62.6255 37.9016 62.1581 37.327C61.6907 36.7524 61.064 36.3298 60.3573 36.1126C59.6505 35.8954 58.8955 35.8934 58.1876 36.1069C57.4798 36.3204 56.8509 36.7398 56.3805 37.3119C55.9102 37.8841 55.6195 38.5834 55.5452 39.3214C55.4709 40.0594 55.6164 40.8029 55.9632 41.4579C56.4191 42.3204 57.869 40.9179 58.7285 41.2179L58.721 41.2254ZM41.1205 41.2254C40.1639 41.5554 39.7827 43.5204 38.8261 43.0104C38.1733 42.6626 37.6379 42.1283 37.2877 41.4751C36.9374 40.8219 36.7881 40.0792 36.8586 39.3408C36.929 38.6024 37.2161 37.9016 37.6835 37.327C38.1508 36.7524 38.7775 36.3298 39.4843 36.1126C40.191 35.8954 40.9461 35.8934 41.6539 36.1069C42.3618 36.3204 42.9906 36.7398 43.461 37.3119C43.9313 37.8841 44.222 38.5834 44.2963 39.3214C44.3706 40.0594 44.2251 40.8029 43.8783 41.4579C43.4224 42.3204 41.965 40.9179 41.113 41.2179L41.1205 41.2254Z" fill="#3A3B45"/>
	<path d="M50.0965 59.2171C57.4431 59.2171 59.8123 52.6471 59.8123 49.2721C59.8123 47.5171 58.6389 48.0721 56.7555 49.0021C55.0142 49.8646 52.6749 51.0571 50.104 51.0571C44.7304 51.0571 40.3882 45.8971 40.3882 49.2721C40.3882 52.6471 42.7499 59.2171 50.104 59.2171H50.0965Z" fill="#FF323D"/>
	<path fill-rule="evenodd" clip-rule="evenodd" d="M44.4687 57.5004C44.8631 56.6961 45.4183 55.9821 46.0998 55.4027C46.7813 54.8233 47.5745 54.391 48.4298 54.1329C48.7287 54.0429 49.0351 54.5604 49.3565 55.0929C49.6555 55.6029 49.9694 56.1204 50.2832 56.1204C50.6196 56.1204 50.9559 55.6104 51.2772 55.1079C51.6136 54.5829 51.9424 54.0729 52.2638 54.1704C53.8693 54.6818 55.2109 55.8047 56.0006 57.2979C58.7883 55.0929 59.8122 51.4929 59.8122 49.2729C59.8122 47.5179 58.6388 48.0729 56.7555 49.0029L56.6508 49.0554C54.9244 49.9179 52.6225 51.0579 50.0964 51.0579C47.5703 51.0579 45.2759 49.9179 43.542 49.0554C41.5988 48.0879 40.3806 47.4804 40.3806 49.2729C40.3806 51.5604 41.4718 55.3179 44.4687 57.5004Z" fill="#3A3B45"/>
	<path d="M67.8465 44.75C68.4907 44.75 69.1085 44.4932 69.564 44.0361C70.0196 43.579 70.2755 42.959 70.2755 42.3125C70.2755 41.666 70.0196 41.046 69.564 40.5889C69.1085 40.1318 68.4907 39.875 67.8465 39.875C67.2023 39.875 66.5845 40.1318 66.129 40.5889C65.6735 41.046 65.4176 41.666 65.4176 42.3125C65.4176 42.959 65.6735 43.579 66.129 44.0361C66.5845 44.4932 67.2023 44.75 67.8465 44.75ZM33.0939 44.75C33.7381 44.75 34.3559 44.4932 34.8114 44.0361C35.2669 43.579 35.5228 42.959 35.5228 42.3125C35.5228 41.666 35.2669 41.046 34.8114 40.5889C34.3559 40.1318 33.7381 39.875 33.0939 39.875C32.4497 39.875 31.8319 40.1318 31.3764 40.5889C30.9209 41.046 30.6649 41.666 30.6649 42.3125C30.6649 42.959 30.9209 43.579 31.3764 44.0361C31.8319 44.4932 32.4497 44.75 33.0939 44.75ZM28.094 53C26.8833 53 25.807 53.495 25.0522 54.4025C24.4085 55.2004 24.0576 56.1959 24.0582 57.2225C23.5876 57.0805 23.0997 57.0048 22.6083 56.9975C21.4499 56.9975 20.4036 57.44 19.6637 58.2425C19.0036 58.9304 18.5874 59.8171 18.4793 60.766C18.3713 61.7148 18.5774 62.6729 19.0658 63.4925C18.4044 64.0344 17.9351 64.7762 17.728 65.6075C17.5486 66.2825 17.3693 67.7075 18.3259 69.1625C17.9673 69.7158 17.7539 70.3511 17.7055 71.0093C17.6572 71.6676 17.7755 72.3274 18.0494 72.9275C18.8117 74.6675 20.7175 76.0325 24.4169 77.5025C26.7114 78.4175 28.8189 79.0025 28.8339 79.01C31.4963 79.7502 34.2405 80.1533 37.0026 80.21C41.3822 80.21 44.5137 78.86 46.3148 76.205C49.2146 71.9375 48.8036 68.03 45.0443 64.265C42.9741 62.18 41.5915 59.1125 41.3075 58.4375C40.7245 56.4425 39.1849 54.2225 36.6364 54.2225C35.9584 54.2333 35.2928 54.4063 34.6948 54.7272C34.0969 55.0481 33.5839 55.5076 33.1985 56.0675C32.4512 55.1225 31.7187 54.38 31.0611 53.9525C30.1834 53.3563 29.1535 53.0256 28.094 53ZM28.094 56C28.4752 56 28.946 56.165 29.4542 56.4875C31.0536 57.5075 34.1253 62.81 35.2538 64.8725C35.6275 65.5625 36.2777 65.855 36.8532 65.855C38.0116 65.855 38.9084 64.7075 36.9653 63.245C34.0356 61.0475 35.0595 57.455 36.4571 57.2375C36.5168 57.2225 36.5841 57.2225 36.6364 57.2225C37.9069 57.2225 38.4675 59.42 38.4675 59.42C38.4675 59.42 40.1117 63.56 42.9367 66.395C45.7543 69.2225 45.9038 71.495 43.8485 74.5175C42.4435 76.58 39.7604 77.2025 37.0026 77.2025C34.1552 77.2025 31.2255 76.5275 29.5887 76.1075C29.5065 76.085 19.5366 73.2575 20.7997 70.8575C21.0089 70.4525 21.3602 70.2875 21.8012 70.2875C23.5799 70.2875 26.8085 72.9425 28.2061 72.9425C28.5125 72.9425 28.7293 72.815 28.8264 72.4925C29.4168 70.355 19.8132 69.455 20.6203 66.365C20.7698 65.8175 21.1509 65.6 21.6965 65.6C24.0433 65.6 29.3197 69.7475 30.4258 69.7475C30.508 69.7475 30.5753 69.725 30.6052 69.6725C31.1582 68.7725 30.8518 68.1425 26.943 65.7725C23.0493 63.4025 20.3064 61.9775 21.8609 60.275C22.0403 60.08 22.2944 59.99 22.6083 59.99C24.9775 59.99 30.5753 65.105 30.5753 65.105C30.5753 65.105 32.0849 66.68 33.0042 66.68C33.2135 66.68 33.3928 66.605 33.5124 66.395C34.1552 65.3 27.4886 60.23 27.1149 58.1375C26.8608 56.7125 27.2943 56 28.094 56Z" fill="#FF9D0B"/>
	<path d="M43.8484 74.5175C45.9037 71.4875 45.7542 69.215 42.9367 66.3875C40.1116 63.56 38.4674 59.4125 38.4674 59.4125C38.4674 59.4125 37.8545 57.0125 36.457 57.2375C35.0594 57.4625 34.0355 61.0475 36.9652 63.245C39.8874 65.4425 36.3822 66.935 35.2537 64.8725C34.1327 62.81 31.0535 57.5075 29.4541 56.4875C27.8622 55.475 26.7412 56.0375 27.1149 58.1375C27.4885 60.23 34.1625 65.3 33.5123 66.3875C32.8621 67.49 30.5752 65.105 30.5752 65.105C30.5752 65.105 23.4229 58.5725 21.8609 60.275C20.3063 61.9775 23.0492 63.4025 26.943 65.7725C30.8517 68.1425 31.1581 68.7725 30.6051 69.6725C30.0445 70.5725 21.4274 63.275 20.6202 66.3725C19.8131 69.455 29.4168 70.3475 28.8263 72.485C28.2284 74.6225 22.0552 68.45 20.7996 70.85C19.5291 73.2575 29.5064 76.085 29.5887 76.1075C32.8023 76.9475 40.986 78.725 43.8484 74.5175Z" fill="#FFD21E"/>
	<path d="M72.8464 53C74.0572 53 75.1408 53.495 75.8882 54.4025C76.5319 55.2004 76.8828 56.1959 76.8822 57.2225C77.3552 57.0798 77.8457 57.0041 78.3396 56.9975C79.498 56.9975 80.5443 57.44 81.2842 58.2425C81.9443 58.9304 82.3605 59.8171 82.4686 60.766C82.5766 61.7148 82.3705 62.6729 81.8821 63.4925C82.5408 64.0355 83.0073 64.7772 83.2124 65.6075C83.3918 66.2825 83.5712 67.7075 82.6145 69.1625C82.9731 69.7158 83.1865 70.3511 83.2349 71.0093C83.2832 71.6676 83.165 72.3274 82.891 72.9275C82.1287 74.6675 80.2229 76.0325 76.5309 77.5025C74.2291 78.4175 72.1215 79.0025 72.1065 79.01C69.4441 79.7502 66.6999 80.1533 63.9378 80.21C59.5582 80.21 56.4267 78.86 54.6256 76.205C51.7258 71.9375 52.1368 68.03 55.8961 64.265C57.9738 62.18 59.3564 59.1125 59.6404 58.4375C60.2234 56.4425 61.7555 54.2225 64.304 54.2225C64.982 54.2333 65.6477 54.4063 66.2456 54.7272C66.8436 55.0481 67.3565 55.5076 67.7419 56.0675C68.4893 55.1225 69.2217 54.38 69.8868 53.9525C70.7624 53.3576 71.7894 53.0271 72.8464 53ZM72.8464 56C72.4653 56 72.0019 56.165 71.4862 56.4875C69.8943 57.5075 66.8152 62.81 65.6866 64.8725C65.5343 65.1668 65.3049 65.4138 65.0231 65.5869C64.7413 65.7601 64.4177 65.8527 64.0873 65.855C62.9363 65.855 62.032 64.7075 63.9826 63.245C66.9048 61.0475 65.8809 57.455 64.4834 57.2375C64.4241 57.2278 64.3641 57.2228 64.304 57.2225C63.0335 57.2225 62.4729 59.42 62.4729 59.42C62.4729 59.42 60.8287 63.56 58.0112 66.395C55.1861 69.2225 55.0366 71.495 57.0994 74.5175C58.4969 76.58 61.1875 77.2025 63.9378 77.2025C66.7927 77.2025 69.7149 76.5275 71.3592 76.1075C71.4339 76.085 81.4113 73.2575 80.1482 70.8575C79.9315 70.4525 79.5877 70.2875 79.1467 70.2875C77.368 70.2875 74.1319 72.9425 72.7418 72.9425C72.4279 72.9425 72.2112 72.815 72.1215 72.4925C71.5236 70.355 81.1273 69.455 80.3201 66.365C80.1781 65.8175 79.7969 65.6 79.2439 65.6C76.8972 65.6 71.6207 69.7475 70.5146 69.7475C70.4399 69.7475 70.3726 69.725 70.3427 69.6725C69.7897 68.7725 70.0886 68.1425 73.9899 65.7725C77.8986 63.4025 80.6415 61.9775 79.072 60.275C78.9001 60.08 78.646 59.99 78.3396 59.99C75.9629 59.99 70.3652 65.105 70.3652 65.105C70.3652 65.105 68.8555 66.68 67.9437 66.68C67.8409 66.6846 67.739 66.6604 67.6492 66.61C67.5594 66.5597 67.4854 66.4852 67.4355 66.395C66.7853 65.3 73.4518 60.23 73.8255 58.1375C74.0796 56.7125 73.6461 56 72.8464 56Z" fill="#FF9D0B"/>
	<path d="M57.0992 74.5175C55.044 71.4875 55.186 69.215 58.011 66.3875C60.8286 63.56 62.4728 59.4125 62.4728 59.4125C62.4728 59.4125 63.0857 57.0125 64.4907 57.2375C65.8808 57.4625 66.9047 61.0475 63.9825 63.245C61.0528 65.4425 64.5655 66.935 65.6865 64.8725C66.815 62.81 69.8942 57.5075 71.4861 56.4875C73.078 55.475 74.2065 56.0375 73.8254 58.1375C73.4517 60.23 66.7851 65.3 67.4354 66.3875C68.0781 67.49 70.365 65.105 70.365 65.105C70.365 65.105 77.5248 58.5725 79.0794 60.275C80.6339 61.9775 77.8985 63.4025 73.9972 65.7725C70.0885 68.1425 69.7896 68.7725 70.3351 69.6725C70.8957 70.5725 79.5128 63.275 80.32 66.3725C81.1271 69.455 71.5309 70.3475 72.1214 72.485C72.7192 74.6225 78.885 68.45 80.1481 70.85C81.4111 73.2575 71.4412 76.085 71.359 76.1075C68.1379 76.9475 59.9542 78.725 57.0992 74.5175Z" fill="#FFD21E"/>
</svg>
